name C:\Users\u0101727\Documents\MyRepositories\upper-imu-dc\Results\main_tracking\Case_43\FLX01_linearAccelerations_bodyFrame.mot
datacolumns 4
datarows 129
range 2.01000000 3.29000000
endheader 
time	radius_imu_x	radius_imu_y	radius_imu_z	
          2.01000000	         -5.07950239	         -3.16115852	          7.51694811	
          2.02000000	         -5.05859917	         -3.29209880	          7.42898998	
          2.03000000	         -5.03158821	         -3.42328824	          7.34041591	
          2.04000000	         -4.99939699	         -3.55450318	          7.25175475	
          2.05000000	         -4.96285065	         -3.68549545	          7.16355455	
          2.06000000	         -4.92268038	         -3.81598436	          7.07640778	
          2.07000000	         -4.87958749	         -3.94565930	          6.99094400	
          2.08000000	         -4.83430171	         -4.07419449	          6.90778646	
          2.09000000	         -4.78759710	         -4.20127277	          6.82748463	
          2.10000000	         -4.74025961	         -4.32661488	          6.75043728	
          2.11000000	         -4.69302102	         -4.45001001	          6.67682193	
          2.12000000	         -4.64648886	         -4.57133738	          6.60655332	
          2.13000000	         -4.60110812	         -4.69056637	          6.53929066	
          2.14000000	         -4.55717123	         -4.80773185	          6.47449502	
          2.15000000	         -4.51485169	         -4.92289401	          6.41152018	
          2.16000000	         -4.47422107	         -5.03610062	          6.34971000	
          2.17000000	         -4.43523344	         -5.14736445	          6.28847786	
          2.18000000	         -4.39769215	         -5.25665826	          6.22735476	
          2.19000000	         -4.36122593	         -5.36392401	          6.16600313	
          2.20000000	         -4.32529800	         -5.46908833	          6.10420514	
          2.21000000	         -4.28926310	         -5.57207252	          6.04184699	
          2.22000000	         -4.25247012	         -5.67279059	          5.97891596	
          2.23000000	         -4.21437977	         -5.77114198	          5.91549572	
          2.24000000	         -4.17465444	         -5.86701303	          5.85173020	
          2.25000000	         -4.13318577	         -5.96029339	          5.78775207	
          2.26000000	         -4.09005319	         -6.05090089	          5.72360534	
          2.27000000	         -4.04543453	         -6.13880467	          5.65919953	
          2.28000000	         -3.99950803	         -6.22403915	          5.59432007	
          2.29000000	         -3.95238128	         -6.30670612	          5.52869491	
          2.30000000	         -3.90406017	         -6.38696563	          5.46209384	
          2.31000000	         -3.85445301	         -6.46501865	          5.39442620	
          2.32000000	         -3.80340222	         -6.54108423	          5.32581265	
          2.33000000	         -3.75074337	         -6.61537302	          5.25662274	
          2.34000000	         -3.69638259	         -6.68806194	          5.18746763	
          2.35000000	         -3.64036601	         -6.75927893	          5.11913464	
          2.36000000	         -3.58291377	         -6.82910337	          5.05247791	
          2.37000000	         -3.52440552	         -6.89757598	          4.98831440	
          2.38000000	         -3.46532028	         -6.96470877	          4.92736472	
          2.39000000	         -3.40614835	         -7.03049412	          4.87023608	
          2.40000000	         -3.34730793	         -7.09491393	          4.81742059	
          2.41000000	         -3.28910011	         -7.15794686	          4.76928741	
          2.42000000	         -3.23171271	         -7.21957378	          4.72606033	
          2.43000000	         -3.17525697	         -7.27978375	          4.68778816	
          2.44000000	         -3.11981316	         -7.33858050	          4.65432286	
          2.45000000	         -3.06547007	         -7.39598602	          4.62531525	
          2.46000000	         -3.01235062	         -7.45204065	          4.60022793	
          2.47000000	         -2.96062122	         -7.50680066	          4.57836104	
          2.48000000	         -2.91049063	         -7.56033389	          4.55888832	
          2.49000000	         -2.86220544	         -7.61271274	          4.54090517	
          2.50000000	         -2.81603848	         -7.66400754	          4.52349009	
          2.51000000	         -2.77225502	         -7.71428385	          4.50577565	
          2.52000000	         -2.73105180	         -7.76360096	          4.48701659	
          2.53000000	         -2.69248800	         -7.81200699	          4.46663680	
          2.54000000	         -2.65643633	         -7.85953242	          4.44424248	
          2.55000000	         -2.62257185	         -7.90618881	          4.41960411	
          2.56000000	         -2.59040232	         -7.95197509	          4.39262069	
          2.57000000	         -2.55933435	         -7.99688615	          4.36327855	
          2.58000000	         -2.52876149	         -8.04091650	          4.33161581	
          2.59000000	         -2.49815347	         -8.08405644	          4.29769781	
          2.60000000	         -2.46712077	         -8.12628319	          4.26160423	
          2.61000000	         -2.43544328	         -8.16755465	          4.22342450	
          2.62000000	         -2.40305381	         -8.20781409	          4.18325435	
          2.63000000	         -2.36999015	         -8.24700707	          4.14118468	
          2.64000000	         -2.33634010	         -8.28510216	          4.09727930	
          2.65000000	         -2.30219966	         -8.32210551	          4.05154731	
          2.66000000	         -2.26765299	         -8.35806516	          4.00392441	
          2.67000000	         -2.23276989	         -8.39306476	          3.95428001	
          2.68000000	         -2.19760775	         -8.42720887	          3.90245685	
          2.69000000	         -2.16220830	         -8.46060182	          3.84832912	
          2.70000000	         -2.12659063	         -8.49332436	          3.79185023	
          2.71000000	         -2.09074351	         -8.52541454	          3.73307005	
          2.72000000	         -2.05461377	         -8.55685963	          3.67212422	
          2.73000000	         -2.01808415	         -8.58760353	          3.60921241	
          2.74000000	         -1.98094274	         -8.61756867	          3.54458205	
          2.75000000	         -1.94286205	         -8.64668408	          3.47852543	
          2.76000000	         -1.90340906	         -8.67490965	          3.41138229	
          2.77000000	         -1.86209219	         -8.70224794	          3.34352964	
          2.78000000	         -1.81842644	         -8.72873964	          3.27535294	
          2.79000000	         -1.77199070	         -8.75445213	          3.20721343	
          2.80000000	         -1.72247526	         -8.77946893	          3.13943075	
          2.81000000	         -1.66971447	         -8.80388328	          3.07227997	
          2.82000000	         -1.61369997	         -8.82779581	          3.00599598	
          2.83000000	         -1.55458291	         -8.85131324	          2.94077643	
          2.84000000	         -1.49265337	         -8.87454724	          2.87677395	
          2.85000000	         -1.42829558	         -8.89760717	          2.81407918	
          2.86000000	         -1.36193591	         -8.92058836	          2.75271357	
          2.87000000	         -1.29400360	         -8.94356188	          2.69264892	
          2.88000000	         -1.22491002	         -8.96656948	          2.63385395	
          2.89000000	         -1.15503685	         -8.98962489	          2.57635126	
          2.90000000	         -1.08472305	         -9.01272000	          2.52026227	
          2.91000000	         -1.01424952	         -9.03583194	          2.46582501	
          2.92000000	         -0.94382827	         -9.05892878	          2.41338425	
          2.93000000	         -0.87360499	         -9.08197299	          2.36336530	
          2.94000000	         -0.80367868	         -9.10492205	          2.31624310	
          2.95000000	         -0.73413482	         -9.12772501	          2.27251147	
          2.96000000	         -0.66508486	         -9.15031502	          2.23264808	
          2.97000000	         -0.59670750	         -9.17259916	          2.19707126	
          2.98000000	         -0.52928240	         -9.19445003	          2.16609642	
          2.99000000	         -0.46319854	         -9.21570782	          2.13990831	
          3.00000000	         -0.39892494	         -9.23619730	          2.11855813	
          3.01000000	         -0.33695432	         -9.25575237	          2.10197973	
          3.02000000	         -0.27774550	         -9.27423537	          2.09001307	
          3.03000000	         -0.22168762	         -9.29154338	          2.08242455	
          3.04000000	         -0.16909472	         -9.30760325	          2.07891952	
          3.05000000	         -0.12022137	         -9.32236160	          2.07914914	
          3.06000000	         -0.07527696	         -9.33577678	          2.08271751	
          3.07000000	         -0.03441823	         -9.34781997	          2.08919285	
          3.08000000	          0.00227959	         -9.35848746	          2.09812243	
          3.09000000	          0.03485271	         -9.36781741	          2.10905105	
          3.10000000	          0.06345463	         -9.37590012	          2.12154256	
          3.11000000	          0.08832962	         -9.38287341	          2.13520734	
          3.12000000	          0.10976467	         -9.38890369	          2.14973079	
          3.13000000	          0.12803983	         -9.39416072	          2.16489404	
          3.14000000	          0.14339410	         -9.39879434	          2.18057998	
          3.15000000	          0.15601332	         -9.40291973	          2.19675944	
          3.16000000	          0.16603060	         -9.40661020	          2.21345735	
          3.17000000	          0.17353228	         -9.40989804	          2.23070830	
          3.18000000	          0.17857159	         -9.41278375	          2.24851644	
          3.19000000	          0.18119184	         -9.41525182	          2.26683347	
          3.20000000	          0.18145163	         -9.41728641	          2.28555744	
          3.21000000	          0.17944183	         -9.41888076	          2.30454652	
          3.22000000	          0.17529218	         -9.42004064	          2.32364121	
          3.23000000	          0.16917160	         -9.42078534	          2.34268939	
          3.24000000	          0.16128371	         -9.42114725	          2.36156730	
          3.25000000	          0.15185464	         -9.42117086	          2.38018634	
          3.26000000	          0.14111111	         -9.42091283	          2.39847919	
          3.27000000	          0.12925453	         -9.42044387	          2.41637207	
          3.28000000	          0.11643887	         -9.41985150	          2.43375931	
          3.29000000	          0.10275339	         -9.41923949	          2.45048967	
